<?xml version="1.0" encoding="UTF-8"?>
<svg id="Calque_1" data-name="Calque 1" xmlns="http://www.w3.org/2000/svg" viewBox="0 0 1600 500">
  <defs>
    <style>
      .cls-1 {
        fill: #905cff;
        stroke-width: 0px;
      }
    </style>
  </defs>
  <path class="cls-1" d="M220.69,311.74c-28.53,0-54.85-18.2-54.85-62.97,0-40.1,22.88-62.97,50.92-62.97s40.1,23.12,40.1,38.62l21.15-3.44c-.24-21.15-15.99-54.85-61.5-54.85-42.8,0-73.3,32.72-73.3,82.65s31.24,82.65,76.99,82.65c35.91,0,54.36-23.61,59.28-30.5l-13.53-13.78c-8.61,11.81-24.11,24.6-45.26,24.6Z"/>
  <path class="cls-1" d="M357.7,212.36c-35.91,0-59.77,24.85-59.77,60.02s23.86,59.04,59.77,59.04,59.77-23.86,59.77-59.04-23.86-60.02-59.77-60.02ZM357.7,313.22c-22.63,0-37.64-16.73-37.64-40.83s15.01-41.82,37.64-41.82,37.64,17.71,37.64,41.82-15.01,40.83-37.64,40.83Z"/>
  <path class="cls-1" d="M505.05,212.36c-22.14,0-35.18,13.28-41.33,27.8h-.74c0-5.16-.98-18.2-2.95-27.06l-15.25.74v116.11h21.65v-60.76c0-16.73,10.82-38.62,34.93-38.62,17.47,0,27.06,11.32,27.06,28.29v71.09h21.89v-71.09c0-27.8-17.47-46.49-45.26-46.49Z"/>
  <path class="cls-1" d="M643.79,212.36c-22.14,0-35.18,13.28-41.33,27.8h-.74c0-5.16-.98-18.2-2.95-27.06l-15.25.74v116.11h21.65v-60.76c0-16.73,10.82-38.62,34.93-38.62,17.47,0,27.06,11.32,27.06,28.29v71.09h21.89v-71.09c0-27.8-17.47-46.49-45.26-46.49Z"/>
  <path class="cls-1" d="M772.93,212.36c-35.18,0-57.56,25.09-57.56,59.77s23.37,59.28,60.51,59.28c19.92,0,37.14-7.13,47.97-21.4l-13.28-12.05c-5.16,6.89-15.25,15.25-32.96,15.25-23.12,0-37.63-14.02-39.85-35.42h87.08s.99-4.18.99-11.07c0-30.5-18.69-54.36-52.89-54.36ZM738.24,262.3c3.2-18.69,15.99-31.73,34.68-31.73s30.5,12.54,30.75,31.73h-65.43Z"/>
  <path class="cls-1" d="M906.5,313.22c-24.6,0-38.62-16.48-38.62-41.08s14.76-41.57,36.65-41.57c17.47,0,27.8,10.33,27.8,24.6,0,2.71-.24,4.92-.49,6.15l20.17-1.48s.74-2.95.74-7.87c0-22.14-18.94-39.6-48.7-39.6-34.19,0-58.3,24.85-58.3,60.27s23.86,58.79,60.02,58.79c20.91,0,38.37-6.89,49.2-19.92l-12.79-13.78c-4.43,5.41-13.78,15.5-35.67,15.5Z"/>
  <path class="cls-1" d="M1030.97,312.97c-15.74,0-22.39-9.35-22.39-28.04v-53.62h45.02v-17.47h-45.02v-35.67l-21.89,1.23v34.44h-18.45v17.47h18.45v54.36c0,29.76,12.05,45.75,42.06,45.75,18.94,0,30.5-7.63,30.5-7.63l-6.89-17.47s-7.87,6.64-21.4,6.64Z"/>
  <path class="cls-1" d="M1199.99,200.37c-1.69,31.34-45.06,58.93-87.32,58v-88.32h-22.39v162.35h22.39v-59.28c24.73,0,57.34.31,87.32-24.47v83.75h22.38v-162.35h-22.38s.49,21.28,0,30.31Z"/>
  <path class="cls-1" d="M1311.17,214.82c-35.18,0-57.56,25.09-57.56,59.77s23.37,59.28,60.51,59.28c19.93,0,37.15-7.13,47.97-21.4l-13.28-12.05c-5.17,6.89-15.25,15.25-32.96,15.25-23.12,0-37.63-14.02-39.85-35.42h87.08s.99-4.18.99-11.07c0-30.5-18.7-54.36-52.89-54.36ZM1276.48,264.76c3.2-18.7,15.99-31.73,34.69-31.73s30.5,12.54,30.74,31.73h-65.43Z"/>
  <path class="cls-1" d="M1441.79,214.82c-17.22,0-27.06,12.55-31.49,27.8h-.99c0-5.16-.99-18.2-2.95-27.06l-15.25.74v116.11h21.65v-60.76c0-24.11,14.76-35.67,27.79-35.67,4.92,0,8.37,1.23,10.83,2.71l5.41-21.89c-4.43-1.23-9.84-1.97-15-1.97Z"/>
</svg>