<svg version="1.1" id="Layer_1" xmlns="http://www.w3.org/2000/svg" xmlns:xlink="http://www.w3.org/1999/xlink" x="0px" y="0px"
	 width="100%" viewBox="0 0 1001 1001" enable-background="new 0 0 1001 1001" xml:space="preserve">
<path fill="#FFFFFF" opacity="1.000000" stroke="none" 
	d="
M588.000000,1002.000000 
	C392.000000,1002.000000 196.500000,1002.000000 1.000000,1002.000000 
	C1.000000,668.333313 1.000000,334.666656 1.000000,1.000000 
	C334.666656,1.000000 668.333313,1.000000 1002.000000,1.000000 
	C1002.000000,334.666656 1002.000000,668.333313 1002.000000,1002.000000 
	C864.166687,1002.000000 726.333313,1002.000000 588.000000,1002.000000 
M192.300995,612.688660 
	C192.300995,612.688660 192.542725,612.846252 192.879303,613.361633 
	C193.899384,614.605652 194.919479,615.849731 195.987152,617.012756 
	C195.987152,617.012756 195.906342,617.060608 196.162796,617.682678 
	C197.427734,619.159912 198.692673,620.637207 200.139023,622.654175 
	C200.721207,623.116943 201.303391,623.579712 202.148056,624.665588 
	C203.417908,626.148560 204.687744,627.631470 206.206696,629.729980 
	C210.433014,633.834167 214.659317,637.938354 219.150513,642.666443 
	C221.086197,644.149109 223.021881,645.631775 225.081055,647.579102 
	C225.266174,647.877808 225.534363,648.032288 226.144897,648.659119 
	C227.815308,649.927063 229.485733,651.195068 231.311798,652.693298 
	C231.311798,652.693298 231.544296,652.845581 231.915283,653.350830 
	C236.568039,656.894775 241.064743,660.669006 245.899429,663.944458 
	C272.974365,682.287231 302.442505,695.127319 334.457214,702.003418 
	C342.942322,703.825867 351.437408,705.601868 360.141296,707.444275 
	C360.141296,778.361450 360.141296,848.970032 360.141296,919.757446 
	C387.166168,919.757446 413.897125,919.757446 441.080139,919.757446 
	C441.080139,849.118469 441.080139,778.720520 441.080139,707.000000 
	C458.255371,707.000000 474.983154,707.105469 491.708679,706.955078 
	C499.969696,706.880859 508.245392,706.580750 516.481018,705.948181 
	C531.356750,704.805542 546.252502,703.704163 561.054871,701.891541 
	C573.622681,700.352417 586.221130,698.480408 598.538696,695.609070 
	C620.396179,690.513916 641.862671,684.089783 662.613525,675.256592 
	C681.145386,667.367920 699.114868,658.509216 715.928711,647.468018 
	C728.471313,639.231689 740.605896,630.373962 753.256836,621.559814 
	C753.256836,721.047119 753.256836,820.438049 753.256836,919.632568 
	C780.418030,919.632568 807.150269,919.632568 833.511536,919.632568 
	C833.511536,725.878601 833.511536,532.492249 833.511536,338.553528 
	C806.437073,338.553528 779.779724,338.553528 753.000000,338.553528 
	C753.000000,340.733765 753.016296,342.729401 752.997620,344.724731 
	C752.667664,379.981750 752.801514,415.253143 751.720520,450.487183 
	C751.387512,461.342255 748.773987,472.432587 745.398315,482.828613 
	C737.134338,508.278229 722.097290,529.888916 704.001343,549.285461 
	C696.024841,557.835205 687.044922,565.484314 678.222595,573.201721 
	C662.259766,587.165161 644.377930,598.430725 625.824463,608.512634 
	C599.172241,622.995422 571.073181,634.063965 541.679932,641.644531 
	C522.468994,646.599060 503.090271,650.788940 483.200043,652.012024 
	C478.439606,652.304688 473.689575,652.774841 468.927795,653.036560 
	C459.740845,653.541382 450.548950,653.955811 440.882141,654.431213 
	C440.882141,548.413513 440.882141,443.350098 440.882141,338.309723 
	C413.698273,338.309723 386.966919,338.309723 359.831909,338.309723 
	C359.831909,439.674072 359.831909,540.729309 359.831909,642.234741 
	C342.859894,636.247253 326.629089,629.977844 311.861298,620.423096 
	C306.313843,616.833740 300.662354,613.405151 295.012604,609.983459 
	C295.012604,609.983459 295.093719,609.939453 294.835297,609.317139 
	C293.237518,608.173096 291.639709,607.029053 289.918671,605.420532 
	C289.733612,605.121948 289.465515,604.967590 288.849854,604.333984 
	C287.247223,603.184326 285.644592,602.034668 283.793457,600.270325 
	C280.900452,597.499390 278.007446,594.728455 274.851868,591.334351 
	C273.582062,589.851440 272.312256,588.368530 270.861053,586.345947 
	C270.278839,585.883118 269.696625,585.420349 268.852936,584.335693 
	C267.588745,582.859253 266.324585,581.382751 265.012909,579.987305 
	C265.012909,579.987305 265.093689,579.939392 264.854004,579.338623 
	C263.852722,578.077515 262.851410,576.816467 261.697205,575.308777 
	C261.697205,575.308777 261.453003,575.152100 261.100464,574.602478 
	C255.737411,565.763184 249.790253,557.219971 245.128998,548.024963 
	C234.352798,526.767273 226.020950,504.524750 222.038651,480.931641 
	C219.276428,464.566833 216.340912,448.128876 215.283798,431.608368 
	C214.292023,416.109283 215.112411,400.421051 216.171951,384.886719 
	C217.045898,372.073547 218.624741,359.188965 221.328476,346.645844 
	C226.377548,323.222382 233.638214,300.334045 246.231369,279.790070 
	C254.184906,266.814972 263.255768,254.359802 273.102814,242.755280 
	C283.608582,230.374374 296.812439,220.871811 310.843689,212.486237 
	C332.555756,199.510345 356.060120,192.207184 381.041962,190.221497 
	C393.018250,189.269562 405.198853,190.362564 417.255188,191.069992 
	C433.958344,192.050064 449.699829,197.091751 464.608612,204.394180 
	C472.121674,208.074127 478.993408,213.063400 486.310272,217.692398 
	C486.310272,217.692398 486.543610,217.845261 486.906189,218.339111 
	C488.589966,219.597565 490.273773,220.856018 492.206726,222.729996 
	C496.433044,226.834183 500.659363,230.938370 505.147125,235.664413 
	C506.411316,237.140900 507.675476,238.617386 508.987183,240.013016 
	C508.987183,240.013016 508.906342,240.060608 509.146027,240.661392 
	C510.147339,241.922485 511.148621,243.183578 512.302795,244.691330 
	C512.302795,244.691330 512.547058,244.847931 512.899902,245.398163 
	C529.245361,270.472382 538.787109,297.760468 539.189209,327.962219 
	C542.568542,327.241486 545.388367,326.504669 548.252991,326.050720 
	C569.612305,322.666046 590.979187,319.328522 612.347778,316.002411 
	C615.025879,315.585510 616.436584,314.347412 616.018555,311.436951 
	C615.600769,308.528229 615.366760,305.593628 614.993286,302.677917 
	C614.144104,296.049347 613.981689,289.228638 612.242493,282.839233 
	C608.225708,268.082153 604.319763,253.186615 598.716919,238.999603 
	C592.957031,224.414902 584.752747,210.893387 574.700684,198.311951 
	C574.700684,198.311951 574.457214,198.153763 574.120667,197.638367 
	C573.100586,196.394302 572.080566,195.150238 571.012573,193.986954 
	C571.012573,193.986954 571.093567,193.939392 570.837158,193.317307 
	C569.572266,191.840042 568.307373,190.362762 566.833374,188.314163 
	C565.927002,187.528595 565.020691,186.743027 563.851807,185.334305 
	C562.582031,183.851364 561.312195,182.368423 559.817627,180.296860 
	C558.583191,179.183731 557.348755,178.070602 555.849854,176.334030 
	C554.247192,175.184311 552.644531,174.034592 550.832886,172.313644 
	C549.926697,171.528259 549.020508,170.742859 547.850525,169.334824 
	C546.253052,168.190948 544.655640,167.047073 543.012634,165.983383 
	C543.012634,165.983383 543.093750,165.939484 542.827698,165.308243 
	C541.751038,164.277161 540.773560,163.111313 539.582947,162.235062 
	C518.960571,147.057739 496.553619,135.538681 471.877594,128.344360 
	C450.135071,122.005310 427.901550,119.124817 405.412689,118.128113 
	C395.692383,117.697296 385.892059,118.405281 376.160736,119.072060 
	C366.043854,119.765236 355.831055,120.319237 345.900269,122.201088 
	C326.214294,125.931511 307.092468,131.554962 288.568756,139.577759 
	C262.398315,150.912430 239.232498,166.537766 218.702118,186.041962 
	C210.028488,194.282043 202.202362,203.525024 194.741638,212.908936 
	C176.964035,235.269180 163.714813,260.228790 153.970688,287.052551 
	C145.881531,309.320526 139.620941,332.054291 136.982788,355.672699 
	C135.603424,368.021606 133.429245,380.363892 133.182388,392.740448 
	C132.632584,420.306763 131.893951,447.971100 137.056686,475.270935 
	C139.971909,490.686371 142.809525,506.171021 146.889893,521.298706 
	C152.924255,543.670837 161.649231,565.096252 173.612167,585.032104 
	C178.425797,593.053772 183.948227,600.650085 189.299561,608.688721 
	C189.299561,608.688721 189.544144,608.846741 189.863708,609.333008 
	C190.625610,610.369690 191.387497,611.406433 192.300995,612.688660 
z"/>
<path fill="#410088" opacity="1.000000" stroke="none" 
	d="
M564.114319,185.957458 
	C565.020691,186.743027 565.927002,187.528595 566.930908,188.987808 
	C567.257874,192.157043 567.889771,194.270187 571.093567,193.939392 
	C571.093567,193.939392 571.012573,193.986954 571.024170,194.339813 
	C571.472290,196.542252 571.056885,199.234055 574.457214,198.153763 
	C574.457214,198.153763 574.700684,198.311951 574.561646,198.765793 
	C575.644348,201.682785 576.575500,204.349228 578.134216,206.576447 
	C589.089600,222.229904 596.952515,239.312775 602.781372,257.477966 
	C607.980835,273.681488 610.429260,290.325348 611.821289,307.169037 
	C611.946045,308.679565 610.224915,311.565704 609.002747,311.781189 
	C590.453003,315.052429 571.864685,318.125488 553.238892,320.936768 
	C543.637329,322.385956 543.603577,322.110382 541.850586,312.181213 
	C541.649597,311.042572 541.212402,309.943115 541.041748,308.801971 
	C537.659729,286.194183 528.306152,265.971588 516.192993,246.880997 
	C515.537598,245.848053 513.787537,245.509659 512.547058,244.847931 
	C512.547058,244.847931 512.302795,244.691330 512.440552,244.227966 
	C512.766418,241.130035 511.608246,239.830154 508.906342,240.060608 
	C508.906342,240.060608 508.987183,240.013016 508.975891,239.665680 
	C508.753448,236.797455 508.058990,234.737640 504.885681,235.042557 
	C500.659363,230.938370 496.433044,226.834183 492.088196,222.019379 
	C491.555634,217.969360 490.364716,215.846985 486.543610,217.845261 
	C486.543610,217.845261 486.310272,217.692398 486.443848,217.235931 
	C486.112305,215.615707 485.987274,213.937576 485.128204,213.369598 
	C478.312561,208.863388 471.683563,203.901642 464.385101,200.330917 
	C440.708618,188.747314 415.506958,185.010300 389.233154,185.816559 
	C369.266785,186.429260 350.088287,189.784500 331.506226,196.984573 
	C303.603638,207.796082 280.275452,225.022827 261.613647,248.212692 
	C245.970230,267.651794 234.186417,289.467743 225.897034,313.045654 
	C217.277527,337.562592 212.266998,362.965881 211.282944,388.821167 
	C210.527573,408.668304 211.828934,428.644775 213.124573,448.504425 
	C214.400238,468.058380 219.133377,487.051788 225.060089,505.715210 
	C232.596649,529.448120 243.058578,551.783020 257.242065,572.294678 
	C258.141693,573.595642 260.026520,574.215454 261.453003,575.152100 
	C261.453003,575.152100 261.697205,575.308777 261.559509,575.772095 
	C261.233582,578.870117 262.391907,580.169800 265.093689,579.939392 
	C265.093689,579.939392 265.012909,579.987305 265.024139,580.334473 
	C265.246552,583.202637 265.941193,585.262329 269.114410,584.957520 
	C269.696625,585.420349 270.278839,585.883118 270.944824,587.004639 
	C271.247620,590.182251 271.926910,592.263184 275.114410,591.957520 
	C278.007446,594.728455 280.900452,597.499390 283.911591,600.974121 
	C284.087738,605.308899 286.676239,605.016602 289.114349,604.957458 
	C289.465515,604.967590 289.733612,605.121948 289.974121,606.048340 
	C290.089539,610.290344 292.643860,610.033875 295.093719,609.939453 
	C295.093719,609.939453 295.012604,609.983459 295.023499,610.324890 
	C297.225037,612.890442 299.144714,615.495667 301.650177,617.276978 
	C318.193146,629.038330 336.299194,637.809692 355.369354,644.620361 
	C363.130615,647.392212 363.999512,646.681030 363.999573,638.541687 
	C364.000244,541.715210 364.033264,444.888702 363.899139,348.062469 
	C363.892609,343.354462 364.982941,341.814972 369.903961,341.884277 
	C389.731934,342.163605 409.566223,341.975616 429.398071,342.011444 
	C437.871460,342.026733 436.989288,341.071472 436.990540,349.362549 
	C437.005249,447.688904 436.999908,546.015259 437.000702,644.341614 
	C437.000732,645.841431 436.878784,647.355774 437.040497,648.838562 
	C437.678131,654.684692 441.341370,658.115173 447.042053,657.972290 
	C456.167694,657.743469 465.316803,657.673523 474.405182,656.922058 
	C487.252777,655.859619 500.193298,655.005127 512.848877,652.709656 
	C549.609375,646.041870 584.825500,634.615601 618.189331,617.489990 
	C656.244995,597.955811 690.896057,574.196228 717.998840,540.524902 
	C729.918762,525.716187 739.811646,509.671204 747.026367,492.106323 
	C754.282410,474.440857 757.096313,455.876068 757.028198,436.800873 
	C756.921692,406.970032 757.071106,377.138153 756.916504,347.307739 
	C756.895569,343.255310 757.890320,341.861023 762.158325,341.904694 
	C782.821411,342.116180 803.489990,342.163544 824.151367,341.881927 
	C829.146912,341.813843 830.122131,343.476074 830.101746,348.118011 
	C829.925049,388.281036 830.000000,428.445190 830.000000,468.609009 
	C830.000000,615.598572 830.000244,762.588135 829.999207,909.577698 
	C829.999146,915.994751 829.993713,915.998657 823.457764,915.999329 
	C803.459167,916.001282 783.460632,916.001404 763.462036,915.999146 
	C757.005615,915.998413 757.000793,915.994019 757.000732,909.497498 
	C756.999695,816.504089 757.000366,723.510742 756.996948,630.517334 
	C756.996887,628.851746 757.165466,627.149414 756.888123,625.526978 
	C755.673767,618.422729 750.456055,616.426636 744.815735,620.747803 
	C739.554016,624.778931 734.251282,628.758728 728.903931,632.675537 
	C696.507446,656.405029 660.652527,673.144958 622.345032,684.687073 
	C585.050293,695.923950 546.642395,700.711914 507.896729,702.904297 
	C492.305023,703.786499 476.657043,703.691772 461.033600,703.984741 
	C455.869110,704.081604 450.701263,703.999878 445.534973,704.000061 
	C437.000641,704.000305 437.000122,704.000366 437.000092,712.291321 
	C436.999939,778.286621 436.952789,844.282104 437.101501,910.277039 
	C437.111908,914.895752 435.847778,916.160034 431.256866,916.105164 
	C410.927887,915.862305 390.591827,915.828003 370.264221,916.122070 
	C365.235840,916.194763 363.861237,914.937866 363.876312,909.797546 
	C364.065063,845.469299 364.000122,781.140381 363.999420,716.811584 
	C363.999390,715.311707 364.105621,713.800964 363.964752,712.314026 
	C363.489807,707.300049 359.629913,702.680603 355.312347,702.069031 
	C335.365662,699.243347 315.958832,694.222412 297.247284,686.851624 
	C277.724304,679.161194 258.990295,669.909241 241.934525,657.408691 
	C239.107101,655.336487 236.632919,650.502380 231.544296,652.845581 
	C231.544296,652.845581 231.311798,652.693298 231.446945,652.221069 
	C231.762650,647.317566 228.590225,648.039551 225.885635,648.042542 
	C225.534363,648.032288 225.266174,647.877808 225.025574,646.948547 
	C224.905121,642.098999 222.173843,641.674500 218.885620,642.042542 
	C214.659317,637.938354 210.433014,633.834167 206.089050,629.033325 
	C205.752304,625.817871 205.073288,623.736694 201.885574,624.042480 
	C201.303391,623.579712 200.721207,623.116943 200.055283,621.996338 
	C199.742188,618.842773 199.110046,616.729858 195.906342,617.060608 
	C195.906342,617.060608 195.987152,617.012756 195.975739,616.660034 
	C195.527832,614.457581 195.943085,611.765808 192.542725,612.846252 
	C192.542725,612.846252 192.300995,612.688660 192.441711,612.217529 
	C192.371704,609.939392 192.665466,607.603882 189.544144,608.846741 
	C189.544144,608.846741 189.299561,608.688721 189.438477,608.234436 
	C188.895889,606.154663 188.364410,604.445190 187.509476,602.916748 
	C179.818863,589.166992 171.131912,575.884949 164.522827,561.637329 
	C147.068192,524.009277 139.184082,483.824982 137.272171,442.698517 
	C135.855545,412.225983 136.489777,381.676666 141.794800,351.353729 
	C146.780411,322.856476 154.594925,295.263947 166.216385,268.866882 
	C175.550171,247.666046 188.101013,228.340622 202.900894,210.387543 
	C217.382812,192.820175 234.016327,177.783844 252.538544,164.713425 
	C273.867798,149.662186 297.443420,139.398743 322.464081,132.353714 
	C346.824188,125.494644 371.714813,121.659821 397.007568,122.184654 
	C412.351898,122.503044 427.727325,124.109406 442.965790,126.085617 
	C465.724701,129.037125 487.435730,136.030609 507.998749,146.149811 
	C516.904541,150.532410 525.103760,156.338242 533.707214,161.354660 
	C536.707214,163.103867 539.957703,164.423615 543.093750,165.939484 
	C543.093750,165.939484 543.012634,165.983383 543.024292,166.338715 
	C543.093201,170.326950 545.689575,170.008652 548.114319,169.957458 
	C549.020508,170.742859 549.926697,171.528259 550.931274,172.995712 
	C551.087463,177.309021 553.676208,177.016464 556.114319,176.957474 
	C557.348755,178.070602 558.583191,179.183731 559.923096,180.980072 
	C560.247620,184.182068 560.926636,186.263214 564.114319,185.957458 
z"/>
<path fill="#410088" opacity="1.000000" stroke="none" 
	d="
M231.729797,653.098206 
	C236.632919,650.502380 239.107101,655.336487 241.934525,657.408691 
	C258.990295,669.909241 277.724304,679.161194 297.247284,686.851624 
	C315.958832,694.222412 335.365662,699.243347 355.312347,702.069031 
	C359.629913,702.680603 363.489807,707.300049 363.964752,712.314026 
	C364.105621,713.800964 363.999390,715.311707 363.999420,716.811584 
	C364.000122,781.140381 364.065063,845.469299 363.876312,909.797546 
	C363.861237,914.937866 365.235840,916.194763 370.264221,916.122070 
	C390.591827,915.828003 410.927887,915.862305 431.256866,916.105164 
	C435.847778,916.160034 437.111908,914.895752 437.101501,910.277039 
	C436.952789,844.282104 436.999939,778.286621 437.000092,712.291321 
	C437.000122,704.000366 437.000641,704.000305 445.534973,704.000061 
	C450.701263,703.999878 455.869110,704.081604 461.033600,703.984741 
	C476.657043,703.691772 492.305023,703.786499 507.896729,702.904297 
	C546.642395,700.711914 585.050293,695.923950 622.345032,684.687073 
	C660.652527,673.144958 696.507446,656.405029 728.903931,632.675537 
	C734.251282,628.758728 739.554016,624.778931 744.815735,620.747803 
	C750.456055,616.426636 755.673767,618.422729 756.888123,625.526978 
	C757.165466,627.149414 756.996887,628.851746 756.996948,630.517334 
	C757.000366,723.510742 756.999695,816.504089 757.000732,909.497498 
	C757.000793,915.994019 757.005615,915.998413 763.462036,915.999146 
	C783.460632,916.001404 803.459167,916.001282 823.457764,915.999329 
	C829.993713,915.998657 829.999146,915.994751 829.999207,909.577698 
	C830.000244,762.588135 830.000000,615.598572 830.000000,468.609009 
	C830.000000,428.445190 829.925049,388.281036 830.101746,348.118011 
	C830.122131,343.476074 829.146912,341.813843 824.151367,341.881927 
	C803.489990,342.163544 782.821411,342.116180 762.158325,341.904694 
	C757.890320,341.861023 756.895569,343.255310 756.916504,347.307739 
	C757.071106,377.138153 756.921692,406.970032 757.028198,436.800873 
	C757.096313,455.876068 754.282410,474.440857 747.026367,492.106323 
	C739.811646,509.671204 729.918762,525.716187 717.998840,540.524902 
	C690.896057,574.196228 656.244995,597.955811 618.189331,617.489990 
	C584.825500,634.615601 549.609375,646.041870 512.848877,652.709656 
	C500.193298,655.005127 487.252777,655.859619 474.405182,656.922058 
	C465.316803,657.673523 456.167694,657.743469 447.042053,657.972290 
	C441.341370,658.115173 437.678131,654.684692 437.040497,648.838562 
	C436.878784,647.355774 437.000732,645.841431 437.000702,644.341614 
	C436.999908,546.015259 437.005249,447.688904 436.990540,349.362549 
	C436.989288,341.071472 437.871460,342.026733 429.398071,342.011444 
	C409.566223,341.975616 389.731934,342.163605 369.903961,341.884277 
	C364.982941,341.814972 363.892609,343.354462 363.899139,348.062469 
	C364.033264,444.888702 364.000244,541.715210 363.999573,638.541687 
	C363.999512,646.681030 363.130615,647.392212 355.369354,644.620361 
	C336.299194,637.809692 318.193146,629.038330 301.650177,617.276978 
	C299.144714,615.495667 297.225037,612.890442 295.046326,610.284790 
	C300.662354,613.405151 306.313843,616.833740 311.861298,620.423096 
	C326.629089,629.977844 342.859894,636.247253 359.831909,642.234741 
	C359.831909,540.729309 359.831909,439.674072 359.831909,338.309723 
	C386.966919,338.309723 413.698273,338.309723 440.882141,338.309723 
	C440.882141,443.350098 440.882141,548.413513 440.882141,654.431213 
	C450.548950,653.955811 459.740845,653.541382 468.927795,653.036560 
	C473.689575,652.774841 478.439606,652.304688 483.200043,652.012024 
	C503.090271,650.788940 522.468994,646.599060 541.679932,641.644531 
	C571.073181,634.063965 599.172241,622.995422 625.824463,608.512634 
	C644.377930,598.430725 662.259766,587.165161 678.222595,573.201721 
	C687.044922,565.484314 696.024841,557.835205 704.001343,549.285461 
	C722.097290,529.888916 737.134338,508.278229 745.398315,482.828613 
	C748.773987,472.432587 751.387512,461.342255 751.720520,450.487183 
	C752.801514,415.253143 752.667664,379.981750 752.997620,344.724731 
	C753.016296,342.729401 753.000000,340.733765 753.000000,338.553528 
	C779.779724,338.553528 806.437073,338.553528 833.511536,338.553528 
	C833.511536,532.492249 833.511536,725.878601 833.511536,919.632568 
	C807.150269,919.632568 780.418030,919.632568 753.256836,919.632568 
	C753.256836,820.438049 753.256836,721.047119 753.256836,621.559814 
	C740.605896,630.373962 728.471313,639.231689 715.928711,647.468018 
	C699.114868,658.509216 681.145386,667.367920 662.613525,675.256592 
	C641.862671,684.089783 620.396179,690.513916 598.538696,695.609070 
	C586.221130,698.480408 573.622681,700.352417 561.054871,701.891541 
	C546.252502,703.704163 531.356750,704.805542 516.481018,705.948181 
	C508.245392,706.580750 499.969696,706.880859 491.708679,706.955078 
	C474.983154,707.105469 458.255371,707.000000 441.080139,707.000000 
	C441.080139,778.720520 441.080139,849.118469 441.080139,919.757446 
	C413.897125,919.757446 387.166168,919.757446 360.141296,919.757446 
	C360.141296,848.970032 360.141296,778.361450 360.141296,707.444275 
	C351.437408,705.601868 342.942322,703.825867 334.457214,702.003418 
	C302.442505,695.127319 272.974365,682.287231 245.899429,663.944458 
	C241.064743,660.669006 236.568039,656.894775 231.729797,653.098206 
z"/>
<path fill="#410088" opacity="1.000000" stroke="none" 
	d="
M542.960693,165.623871 
	C539.957703,164.423615 536.707214,163.103867 533.707214,161.354660 
	C525.103760,156.338242 516.904541,150.532410 507.998749,146.149811 
	C487.435730,136.030609 465.724701,129.037125 442.965790,126.085617 
	C427.727325,124.109406 412.351898,122.503044 397.007568,122.184654 
	C371.714813,121.659821 346.824188,125.494644 322.464081,132.353714 
	C297.443420,139.398743 273.867798,149.662186 252.538544,164.713425 
	C234.016327,177.783844 217.382812,192.820175 202.900894,210.387543 
	C188.101013,228.340622 175.550171,247.666046 166.216385,268.866882 
	C154.594925,295.263947 146.780411,322.856476 141.794800,351.353729 
	C136.489777,381.676666 135.855545,412.225983 137.272171,442.698517 
	C139.184082,483.824982 147.068192,524.009277 164.522827,561.637329 
	C171.131912,575.884949 179.818863,589.166992 187.509476,602.916748 
	C188.364410,604.445190 188.895889,606.154663 189.362701,608.110107 
	C183.948227,600.650085 178.425797,593.053772 173.612167,585.032104 
	C161.649231,565.096252 152.924255,543.670837 146.889893,521.298706 
	C142.809525,506.171021 139.971909,490.686371 137.056686,475.270935 
	C131.893951,447.971100 132.632584,420.306763 133.182388,392.740448 
	C133.429245,380.363892 135.603424,368.021606 136.982788,355.672699 
	C139.620941,332.054291 145.881531,309.320526 153.970688,287.052551 
	C163.714813,260.228790 176.964035,235.269180 194.741638,212.908936 
	C202.202362,203.525024 210.028488,194.282043 218.702118,186.041962 
	C239.232498,166.537766 262.398315,150.912430 288.568756,139.577759 
	C307.092468,131.554962 326.214294,125.931511 345.900269,122.201088 
	C355.831055,120.319237 366.043854,119.765236 376.160736,119.072060 
	C385.892059,118.405281 395.692383,117.697296 405.412689,118.128113 
	C427.901550,119.124817 450.135071,122.005310 471.877594,128.344360 
	C496.553619,135.538681 518.960571,147.057739 539.582947,162.235062 
	C540.773560,163.111313 541.751038,164.277161 542.960693,165.623871 
z"/>
<path fill="#410088" opacity="1.000000" stroke="none" 
	d="
M261.276733,574.877319 
	C260.026520,574.215454 258.141693,573.595642 257.242065,572.294678 
	C243.058578,551.783020 232.596649,529.448120 225.060089,505.715210 
	C219.133377,487.051788 214.400238,468.058380 213.124573,448.504425 
	C211.828934,428.644775 210.527573,408.668304 211.282944,388.821167 
	C212.266998,362.965881 217.277527,337.562592 225.897034,313.045654 
	C234.186417,289.467743 245.970230,267.651794 261.613647,248.212692 
	C280.275452,225.022827 303.603638,207.796082 331.506226,196.984573 
	C350.088287,189.784500 369.266785,186.429260 389.233154,185.816559 
	C415.506958,185.010300 440.708618,188.747314 464.385101,200.330917 
	C471.683563,203.901642 478.312561,208.863388 485.128204,213.369598 
	C485.987274,213.937576 486.112305,215.615707 486.366272,217.120041 
	C478.993408,213.063400 472.121674,208.074127 464.608612,204.394180 
	C449.699829,197.091751 433.958344,192.050064 417.255188,191.069992 
	C405.198853,190.362564 393.018250,189.269562 381.041962,190.221497 
	C356.060120,192.207184 332.555756,199.510345 310.843689,212.486237 
	C296.812439,220.871811 283.608582,230.374374 273.102814,242.755280 
	C263.255768,254.359802 254.184906,266.814972 246.231369,279.790070 
	C233.638214,300.334045 226.377548,323.222382 221.328476,346.645844 
	C218.624741,359.188965 217.045898,372.073547 216.171951,384.886719 
	C215.112411,400.421051 214.292023,416.109283 215.283798,431.608368 
	C216.340912,448.128876 219.276428,464.566833 222.038651,480.931641 
	C226.020950,504.524750 234.352798,526.767273 245.128998,548.024963 
	C249.790253,557.219971 255.737411,565.763184 261.276733,574.877319 
z"/>
<path fill="#410088" opacity="1.000000" stroke="none" 
	d="
M512.723511,245.123047 
	C513.787537,245.509659 515.537598,245.848053 516.192993,246.880997 
	C528.306152,265.971588 537.659729,286.194183 541.041748,308.801971 
	C541.212402,309.943115 541.649597,311.042572 541.850586,312.181213 
	C543.603577,322.110382 543.637329,322.385956 553.238892,320.936768 
	C571.864685,318.125488 590.453003,315.052429 609.002747,311.781189 
	C610.224915,311.565704 611.946045,308.679565 611.821289,307.169037 
	C610.429260,290.325348 607.980835,273.681488 602.781372,257.477966 
	C596.952515,239.312775 589.089600,222.229904 578.134216,206.576447 
	C576.575500,204.349228 575.644348,201.682785 574.637268,198.889709 
	C584.752747,210.893387 592.957031,224.414902 598.716919,238.999603 
	C604.319763,253.186615 608.225708,268.082153 612.242493,282.839233 
	C613.981689,289.228638 614.144104,296.049347 614.993286,302.677917 
	C615.366760,305.593628 615.600769,308.528229 616.018555,311.436951 
	C616.436584,314.347412 615.025879,315.585510 612.347778,316.002411 
	C590.979187,319.328522 569.612305,322.666046 548.252991,326.050720 
	C545.388367,326.504669 542.568542,327.241486 539.189209,327.962219 
	C538.787109,297.760468 529.245361,270.472382 512.723511,245.123047 
z"/>
<path fill="#410088" opacity="1.000000" stroke="none" 
	d="
M219.018066,642.354492 
	C222.173843,641.674500 224.905121,642.098999 224.963837,646.716187 
	C223.021881,645.631775 221.086197,644.149109 219.018066,642.354492 
z"/>
<path fill="#410088" opacity="1.000000" stroke="none" 
	d="
M226.015259,648.350830 
	C228.590225,648.039551 231.762650,647.317566 231.369110,652.105957 
	C229.485733,651.195068 227.815308,649.927063 226.015259,648.350830 
z"/>
<path fill="#410088" opacity="1.000000" stroke="none" 
	d="
M486.724915,218.092194 
	C490.364716,215.846985 491.555634,217.969360 491.963623,221.711609 
	C490.273773,220.856018 488.589966,219.597565 486.724915,218.092194 
z"/>
<path fill="#410088" opacity="1.000000" stroke="none" 
	d="
M547.982422,169.646149 
	C545.689575,170.008652 543.093201,170.326950 543.046997,166.298615 
	C544.655640,167.047073 546.253052,168.190948 547.982422,169.646149 
z"/>
<path fill="#410088" opacity="1.000000" stroke="none" 
	d="
M555.982056,176.645752 
	C553.676208,177.016464 551.087463,177.309021 551.035767,173.281326 
	C552.644531,174.034592 554.247192,175.184311 555.982056,176.645752 
z"/>
<path fill="#410088" opacity="1.000000" stroke="none" 
	d="
M294.964508,609.628296 
	C292.643860,610.033875 290.089539,610.290344 290.035736,606.280518 
	C291.639709,607.029053 293.237518,608.173096 294.964508,609.628296 
z"/>
<path fill="#410088" opacity="1.000000" stroke="none" 
	d="
M288.982117,604.645752 
	C286.676239,605.016602 284.087738,605.308899 284.035828,601.281494 
	C285.644592,602.034668 287.247223,603.184326 288.982117,604.645752 
z"/>
<path fill="#410088" opacity="1.000000" stroke="none" 
	d="
M268.983673,584.646606 
	C265.941193,585.262329 265.246552,583.202637 265.047913,580.293945 
	C266.324585,581.382751 267.588745,582.859253 268.983673,584.646606 
z"/>
<path fill="#410088" opacity="1.000000" stroke="none" 
	d="
M202.016815,624.354004 
	C205.073288,623.736694 205.752304,625.817871 205.964508,628.725586 
	C204.687744,627.631470 203.417908,626.148560 202.016815,624.354004 
z"/>
<path fill="#410088" opacity="1.000000" stroke="none" 
	d="
M196.034576,617.371643 
	C199.110046,616.729858 199.742188,618.842773 199.964569,621.726440 
	C198.692673,620.637207 197.427734,619.159912 196.034576,617.371643 
z"/>
<path fill="#410088" opacity="1.000000" stroke="none" 
	d="
M274.983154,591.645935 
	C271.926910,592.263184 271.247620,590.182251 271.035522,587.274536 
	C272.312256,588.368530 273.582062,589.851440 274.983154,591.645935 
z"/>
<path fill="#410088" opacity="1.000000" stroke="none" 
	d="
M563.983032,185.645889 
	C560.926636,186.263214 560.247620,184.182068 560.035522,181.274384 
	C561.312195,182.368423 562.582031,183.851364 563.983032,185.645889 
z"/>
<path fill="#410088" opacity="1.000000" stroke="none" 
	d="
M505.016418,235.353485 
	C508.058990,234.737640 508.753448,236.797455 508.952148,239.706116 
	C507.675476,238.617386 506.411316,237.140900 505.016418,235.353485 
z"/>
<path fill="#410088" opacity="1.000000" stroke="none" 
	d="
M570.965332,193.628357 
	C567.889771,194.270187 567.257874,192.157043 567.035400,189.273468 
	C568.307373,190.362762 569.572266,191.840042 570.965332,193.628357 
z"/>
<path fill="#410088" opacity="1.000000" stroke="none" 
	d="
M264.973846,579.639038 
	C262.391907,580.169800 261.233582,578.870117 261.635986,575.895386 
	C262.851410,576.816467 263.852722,578.077515 264.973846,579.639038 
z"/>
<path fill="#410088" opacity="1.000000" stroke="none" 
	d="
M192.711014,613.103943 
	C195.943085,611.765808 195.527832,614.457581 195.951965,616.700500 
	C194.919479,615.849731 193.899384,614.605652 192.711014,613.103943 
z"/>
<path fill="#410088" opacity="1.000000" stroke="none" 
	d="
M509.026184,240.360992 
	C511.608246,239.830154 512.766418,241.130035 512.364075,244.104645 
	C511.148621,243.183578 510.147339,241.922485 509.026184,240.360992 
z"/>
<path fill="#410088" opacity="1.000000" stroke="none" 
	d="
M574.288940,197.896057 
	C571.056885,199.234055 571.472290,196.542252 571.048096,194.299438 
	C572.080566,195.150238 573.100586,196.394302 574.288940,197.896057 
z"/>
<path fill="#410088" opacity="1.000000" stroke="none" 
	d="
M189.703918,609.089844 
	C192.665466,607.603882 192.371704,609.939392 192.365906,612.094727 
	C191.387497,611.406433 190.625610,610.369690 189.703918,609.089844 
z"/>
</svg>